<mxfile host="Electron" agent="Mozilla/5.0 (Windows NT 10.0; Win64; x64) AppleWebKit/537.36 (KHTML, like Gecko) draw.io/24.7.8 Chrome/128.0.6613.36 Electron/32.0.1 Safari/537.36" version="24.7.8">
  <diagram name="PÃ¡gina-1" id="8ohX_3b03GWDvUI5fYia">
    <mxGraphModel dx="778" dy="531" grid="1" gridSize="10" guides="1" tooltips="1" connect="1" arrows="1" fold="1" page="1" pageScale="1" pageWidth="827" pageHeight="1169" math="0" shadow="0">
      <root>
        <mxCell id="0" />
        <mxCell id="1" parent="0" />
        <mxCell id="ye-K6x7buSNKXthBGFgE-1" value="revision" style="rounded=0;whiteSpace=wrap;html=1;" vertex="1" parent="1">
          <mxGeometry x="60" y="260" width="60" height="20" as="geometry" />
        </mxCell>
        <mxCell id="ye-K6x7buSNKXthBGFgE-2" value="coche" style="rounded=0;whiteSpace=wrap;html=1;" vertex="1" parent="1">
          <mxGeometry x="384" y="370" width="60" height="20" as="geometry" />
        </mxCell>
        <mxCell id="ye-K6x7buSNKXthBGFgE-12" style="edgeStyle=orthogonalEdgeStyle;rounded=0;orthogonalLoop=1;jettySize=auto;html=1;entryX=0.5;entryY=0;entryDx=0;entryDy=0;" edge="1" parent="1" source="ye-K6x7buSNKXthBGFgE-3" target="ye-K6x7buSNKXthBGFgE-8">
          <mxGeometry relative="1" as="geometry" />
        </mxCell>
        <mxCell id="ye-K6x7buSNKXthBGFgE-16" style="edgeStyle=orthogonalEdgeStyle;rounded=0;orthogonalLoop=1;jettySize=auto;html=1;exitX=0;exitY=0.5;exitDx=0;exitDy=0;entryX=0.5;entryY=1;entryDx=0;entryDy=0;" edge="1" parent="1" source="ye-K6x7buSNKXthBGFgE-3" target="ye-K6x7buSNKXthBGFgE-15">
          <mxGeometry relative="1" as="geometry" />
        </mxCell>
        <mxCell id="ye-K6x7buSNKXthBGFgE-3" value="cliente" style="rounded=0;whiteSpace=wrap;html=1;" vertex="1" parent="1">
          <mxGeometry x="70" y="100" width="60" height="20" as="geometry" />
        </mxCell>
        <mxCell id="ye-K6x7buSNKXthBGFgE-4" value="venta" style="rounded=0;whiteSpace=wrap;html=1;" vertex="1" parent="1">
          <mxGeometry x="150" y="180" width="60" height="20" as="geometry" />
        </mxCell>
        <mxCell id="ye-K6x7buSNKXthBGFgE-5" value="nif" style="ellipse;whiteSpace=wrap;html=1;" vertex="1" parent="1">
          <mxGeometry x="90" y="50" width="30" height="20" as="geometry" />
        </mxCell>
        <mxCell id="ye-K6x7buSNKXthBGFgE-6" value="nombre" style="ellipse;whiteSpace=wrap;html=1;" vertex="1" parent="1">
          <mxGeometry x="120" y="30" width="50" height="20" as="geometry" />
        </mxCell>
        <mxCell id="ye-K6x7buSNKXthBGFgE-7" value="direccion" style="ellipse;whiteSpace=wrap;html=1;" vertex="1" parent="1">
          <mxGeometry x="40" y="30" width="50" height="20" as="geometry" />
        </mxCell>
        <mxCell id="ye-K6x7buSNKXthBGFgE-8" value="ciudad" style="ellipse;whiteSpace=wrap;html=1;" vertex="1" parent="1">
          <mxGeometry x="50" y="150" width="50" height="20" as="geometry" />
        </mxCell>
        <mxCell id="ye-K6x7buSNKXthBGFgE-9" style="edgeStyle=orthogonalEdgeStyle;rounded=0;orthogonalLoop=1;jettySize=auto;html=1;entryX=0.32;entryY=0.95;entryDx=0;entryDy=0;entryPerimeter=0;" edge="1" parent="1" source="ye-K6x7buSNKXthBGFgE-3" target="ye-K6x7buSNKXthBGFgE-5">
          <mxGeometry relative="1" as="geometry" />
        </mxCell>
        <mxCell id="ye-K6x7buSNKXthBGFgE-10" style="edgeStyle=orthogonalEdgeStyle;rounded=0;orthogonalLoop=1;jettySize=auto;html=1;exitX=0.75;exitY=0;exitDx=0;exitDy=0;entryX=0.218;entryY=0.818;entryDx=0;entryDy=0;entryPerimeter=0;" edge="1" parent="1" source="ye-K6x7buSNKXthBGFgE-3" target="ye-K6x7buSNKXthBGFgE-6">
          <mxGeometry relative="1" as="geometry" />
        </mxCell>
        <mxCell id="ye-K6x7buSNKXthBGFgE-11" style="edgeStyle=orthogonalEdgeStyle;rounded=0;orthogonalLoop=1;jettySize=auto;html=1;exitX=0.25;exitY=0;exitDx=0;exitDy=0;entryX=0.795;entryY=0.782;entryDx=0;entryDy=0;entryPerimeter=0;" edge="1" parent="1" source="ye-K6x7buSNKXthBGFgE-3" target="ye-K6x7buSNKXthBGFgE-7">
          <mxGeometry relative="1" as="geometry" />
        </mxCell>
        <mxCell id="ye-K6x7buSNKXthBGFgE-15" value="id" style="ellipse;whiteSpace=wrap;html=1;" vertex="1" parent="1">
          <mxGeometry x="20" y="70" width="50" height="20" as="geometry" />
        </mxCell>
        <mxCell id="ye-K6x7buSNKXthBGFgE-19" value="categoria" style="rounded=0;whiteSpace=wrap;html=1;" vertex="1" parent="1">
          <mxGeometry x="415" y="85" width="60" height="15" as="geometry" />
        </mxCell>
        <mxCell id="ye-K6x7buSNKXthBGFgE-20" value="codigo" style="ellipse;whiteSpace=wrap;html=1;" vertex="1" parent="1">
          <mxGeometry x="410" y="35" width="40" height="20" as="geometry" />
        </mxCell>
        <mxCell id="ye-K6x7buSNKXthBGFgE-21" value="nombre" style="ellipse;whiteSpace=wrap;html=1;" vertex="1" parent="1">
          <mxGeometry x="444" y="5" width="50" height="20" as="geometry" />
        </mxCell>
        <mxCell id="ye-K6x7buSNKXthBGFgE-24" style="edgeStyle=orthogonalEdgeStyle;rounded=0;orthogonalLoop=1;jettySize=auto;html=1;entryX=0.32;entryY=0.95;entryDx=0;entryDy=0;entryPerimeter=0;" edge="1" parent="1" source="ye-K6x7buSNKXthBGFgE-19" target="ye-K6x7buSNKXthBGFgE-20">
          <mxGeometry relative="1" as="geometry" />
        </mxCell>
        <mxCell id="ye-K6x7buSNKXthBGFgE-25" style="edgeStyle=orthogonalEdgeStyle;rounded=0;orthogonalLoop=1;jettySize=auto;html=1;exitX=0.75;exitY=0;exitDx=0;exitDy=0;entryX=0.218;entryY=0.818;entryDx=0;entryDy=0;entryPerimeter=0;" edge="1" parent="1" source="ye-K6x7buSNKXthBGFgE-19" target="ye-K6x7buSNKXthBGFgE-21">
          <mxGeometry relative="1" as="geometry" />
        </mxCell>
        <mxCell id="ye-K6x7buSNKXthBGFgE-38" style="edgeStyle=orthogonalEdgeStyle;rounded=0;orthogonalLoop=1;jettySize=auto;html=1;entryX=1;entryY=1;entryDx=0;entryDy=0;" edge="1" parent="1" source="ye-K6x7buSNKXthBGFgE-30" target="ye-K6x7buSNKXthBGFgE-37">
          <mxGeometry relative="1" as="geometry" />
        </mxCell>
        <mxCell id="ye-K6x7buSNKXthBGFgE-30" value="registro_coche" style="rounded=0;whiteSpace=wrap;html=1;" vertex="1" parent="1">
          <mxGeometry x="250" y="120" width="80" height="15" as="geometry" />
        </mxCell>
        <mxCell id="ye-K6x7buSNKXthBGFgE-31" value="precio" style="ellipse;whiteSpace=wrap;html=1;" vertex="1" parent="1">
          <mxGeometry x="230" y="55" width="40" height="20" as="geometry" />
        </mxCell>
        <mxCell id="ye-K6x7buSNKXthBGFgE-32" value="color" style="ellipse;whiteSpace=wrap;html=1;" vertex="1" parent="1">
          <mxGeometry x="290" y="35" width="50" height="20" as="geometry" />
        </mxCell>
        <mxCell id="ye-K6x7buSNKXthBGFgE-33" style="edgeStyle=orthogonalEdgeStyle;rounded=0;orthogonalLoop=1;jettySize=auto;html=1;entryX=0.32;entryY=0.95;entryDx=0;entryDy=0;entryPerimeter=0;" edge="1" parent="1" source="ye-K6x7buSNKXthBGFgE-30" target="ye-K6x7buSNKXthBGFgE-31">
          <mxGeometry relative="1" as="geometry" />
        </mxCell>
        <mxCell id="ye-K6x7buSNKXthBGFgE-34" style="edgeStyle=orthogonalEdgeStyle;rounded=0;orthogonalLoop=1;jettySize=auto;html=1;entryX=0.218;entryY=0.818;entryDx=0;entryDy=0;entryPerimeter=0;" edge="1" parent="1" target="ye-K6x7buSNKXthBGFgE-32">
          <mxGeometry relative="1" as="geometry">
            <mxPoint x="290" y="120" as="sourcePoint" />
          </mxGeometry>
        </mxCell>
        <mxCell id="ye-K6x7buSNKXthBGFgE-35" value="modelo" style="ellipse;whiteSpace=wrap;html=1;" vertex="1" parent="1">
          <mxGeometry x="320" y="55" width="50" height="20" as="geometry" />
        </mxCell>
        <mxCell id="ye-K6x7buSNKXthBGFgE-36" style="edgeStyle=orthogonalEdgeStyle;rounded=0;orthogonalLoop=1;jettySize=auto;html=1;entryX=0.4;entryY=0.75;entryDx=0;entryDy=0;entryPerimeter=0;" edge="1" parent="1" source="ye-K6x7buSNKXthBGFgE-30" target="ye-K6x7buSNKXthBGFgE-35">
          <mxGeometry relative="1" as="geometry" />
        </mxCell>
        <mxCell id="ye-K6x7buSNKXthBGFgE-37" value="matricula" style="ellipse;whiteSpace=wrap;html=1;" vertex="1" parent="1">
          <mxGeometry x="230" y="25" width="60" height="25" as="geometry" />
        </mxCell>
        <mxCell id="ye-K6x7buSNKXthBGFgE-40" style="edgeStyle=orthogonalEdgeStyle;rounded=0;orthogonalLoop=1;jettySize=auto;html=1;entryX=1;entryY=0.5;entryDx=0;entryDy=0;" edge="1" parent="1" source="ye-K6x7buSNKXthBGFgE-39" target="ye-K6x7buSNKXthBGFgE-30">
          <mxGeometry relative="1" as="geometry" />
        </mxCell>
        <mxCell id="ye-K6x7buSNKXthBGFgE-41" style="edgeStyle=orthogonalEdgeStyle;rounded=0;orthogonalLoop=1;jettySize=auto;html=1;entryX=0.5;entryY=1;entryDx=0;entryDy=0;" edge="1" parent="1" source="ye-K6x7buSNKXthBGFgE-39" target="ye-K6x7buSNKXthBGFgE-19">
          <mxGeometry relative="1" as="geometry" />
        </mxCell>
        <mxCell id="ye-K6x7buSNKXthBGFgE-39" value="tiene" style="rhombus;whiteSpace=wrap;html=1;" vertex="1" parent="1">
          <mxGeometry x="374" y="110" width="40" height="35" as="geometry" />
        </mxCell>
        <mxCell id="ye-K6x7buSNKXthBGFgE-42" value="1-1" style="text;html=1;align=center;verticalAlign=middle;whiteSpace=wrap;rounded=0;" vertex="1" parent="1">
          <mxGeometry x="344" y="110" width="30" height="15" as="geometry" />
        </mxCell>
        <mxCell id="ye-K6x7buSNKXthBGFgE-43" value="1-n" style="text;html=1;align=center;verticalAlign=middle;whiteSpace=wrap;rounded=0;" vertex="1" parent="1">
          <mxGeometry x="415" y="110" width="30" height="15" as="geometry" />
        </mxCell>
        <mxCell id="ye-K6x7buSNKXthBGFgE-44" value="1-n" style="text;html=1;align=center;verticalAlign=middle;whiteSpace=wrap;rounded=0;" vertex="1" parent="1">
          <mxGeometry x="379" y="90" width="30" height="15" as="geometry" />
        </mxCell>
        <mxCell id="ye-K6x7buSNKXthBGFgE-49" style="edgeStyle=orthogonalEdgeStyle;rounded=0;orthogonalLoop=1;jettySize=auto;html=1;entryX=0.5;entryY=1;entryDx=0;entryDy=0;" edge="1" parent="1" source="ye-K6x7buSNKXthBGFgE-45" target="ye-K6x7buSNKXthBGFgE-47">
          <mxGeometry relative="1" as="geometry" />
        </mxCell>
        <mxCell id="ye-K6x7buSNKXthBGFgE-51" style="edgeStyle=orthogonalEdgeStyle;rounded=0;orthogonalLoop=1;jettySize=auto;html=1;" edge="1" parent="1" source="ye-K6x7buSNKXthBGFgE-45" target="ye-K6x7buSNKXthBGFgE-50">
          <mxGeometry relative="1" as="geometry" />
        </mxCell>
        <mxCell id="ye-K6x7buSNKXthBGFgE-45" value="marca" style="rounded=0;whiteSpace=wrap;html=1;" vertex="1" parent="1">
          <mxGeometry x="590" y="90" width="40" height="15" as="geometry" />
        </mxCell>
        <mxCell id="ye-K6x7buSNKXthBGFgE-46" value="nombre" style="ellipse;whiteSpace=wrap;html=1;" vertex="1" parent="1">
          <mxGeometry x="570" y="30" width="50" height="20" as="geometry" />
        </mxCell>
        <mxCell id="ye-K6x7buSNKXthBGFgE-47" value="codigo" style="ellipse;whiteSpace=wrap;html=1;" vertex="1" parent="1">
          <mxGeometry x="620" y="20" width="40" height="20" as="geometry" />
        </mxCell>
        <mxCell id="ye-K6x7buSNKXthBGFgE-48" style="edgeStyle=orthogonalEdgeStyle;rounded=0;orthogonalLoop=1;jettySize=auto;html=1;entryX=0.566;entryY=0.848;entryDx=0;entryDy=0;entryPerimeter=0;" edge="1" parent="1" source="ye-K6x7buSNKXthBGFgE-45" target="ye-K6x7buSNKXthBGFgE-46">
          <mxGeometry relative="1" as="geometry" />
        </mxCell>
        <mxCell id="ye-K6x7buSNKXthBGFgE-50" value="descripcion" style="ellipse;whiteSpace=wrap;html=1;" vertex="1" parent="1">
          <mxGeometry x="650" y="55" width="70" height="20" as="geometry" />
        </mxCell>
        <mxCell id="ye-K6x7buSNKXthBGFgE-52" value="descripcion" style="ellipse;whiteSpace=wrap;html=1;" vertex="1" parent="1">
          <mxGeometry x="460" y="25" width="60" height="30" as="geometry" />
        </mxCell>
        <mxCell id="ye-K6x7buSNKXthBGFgE-53" style="edgeStyle=orthogonalEdgeStyle;rounded=0;orthogonalLoop=1;jettySize=auto;html=1;entryX=0.453;entryY=0.999;entryDx=0;entryDy=0;entryPerimeter=0;" edge="1" parent="1" source="ye-K6x7buSNKXthBGFgE-19" target="ye-K6x7buSNKXthBGFgE-52">
          <mxGeometry relative="1" as="geometry" />
        </mxCell>
        <mxCell id="ye-K6x7buSNKXthBGFgE-56" style="edgeStyle=orthogonalEdgeStyle;rounded=0;orthogonalLoop=1;jettySize=auto;html=1;entryX=0;entryY=0.5;entryDx=0;entryDy=0;" edge="1" parent="1" source="ye-K6x7buSNKXthBGFgE-55" target="ye-K6x7buSNKXthBGFgE-45">
          <mxGeometry relative="1" as="geometry" />
        </mxCell>
        <mxCell id="ye-K6x7buSNKXthBGFgE-55" value="tiene" style="rhombus;whiteSpace=wrap;html=1;" vertex="1" parent="1">
          <mxGeometry x="510" y="75" width="40" height="35" as="geometry" />
        </mxCell>
        <mxCell id="ye-K6x7buSNKXthBGFgE-57" style="edgeStyle=orthogonalEdgeStyle;rounded=0;orthogonalLoop=1;jettySize=auto;html=1;entryX=0.963;entryY=0.507;entryDx=0;entryDy=0;entryPerimeter=0;" edge="1" parent="1" source="ye-K6x7buSNKXthBGFgE-55" target="ye-K6x7buSNKXthBGFgE-19">
          <mxGeometry relative="1" as="geometry" />
        </mxCell>
        <mxCell id="ye-K6x7buSNKXthBGFgE-58" value="1-n" style="text;html=1;align=center;verticalAlign=middle;whiteSpace=wrap;rounded=0;" vertex="1" parent="1">
          <mxGeometry x="540" y="75" width="30" height="15" as="geometry" />
        </mxCell>
        <mxCell id="ye-K6x7buSNKXthBGFgE-59" value="1-1" style="text;html=1;align=center;verticalAlign=middle;whiteSpace=wrap;rounded=0;" vertex="1" parent="1">
          <mxGeometry x="480" y="75" width="30" height="15" as="geometry" />
        </mxCell>
        <mxCell id="ye-K6x7buSNKXthBGFgE-60" value="1-n" style="text;html=1;align=center;verticalAlign=middle;whiteSpace=wrap;rounded=0;" vertex="1" parent="1">
          <mxGeometry x="515" y="60" width="30" height="15" as="geometry" />
        </mxCell>
      </root>
    </mxGraphModel>
  </diagram>
</mxfile>
